<?xml version="1.0" encoding="utf-8"?>
<!-- Generator: Adobe Illustrator 22.1.0, SVG Export Plug-In . SVG Version: 6.00 Build 0)  -->
<svg version="1.1" id="Layer_1" xmlns="http://www.w3.org/2000/svg" xmlns:xlink="http://www.w3.org/1999/xlink" x="0px" y="0px"
	 viewBox="0 0 788 482" style="enable-background:new 0 0 788 482;" xml:space="preserve">
<style type="text/css">
	.st0{fill:none;}
	.st1{fill:none;stroke:#2E75FF;stroke-width:6;stroke-miterlimit:10;}
</style>
<path class="st0" d="M294,229.2c2.5-1.7,6.7-1.7,7.7-5.8c0-4.2,0-7.3,0-11.4c3.1-16.6,2.1-32.2,1.7-48.8"/>
<path class="st0" d="M77.1,226c55.1,1.6,110.2,0.5,165.5,0.8"/>
<path class="st1" d="M227.4,448.6c-1.6-25.7-3-51.5-4.2-77.2"/>
<path class="st1" d="M299.4,440.2c8.1-7.3,26.8-12.8,36.4-3.3c7.6,7.5-6.9,16.1-13.3,18.2c-7,2.3-15.1,0.8-21.3-2.9"/>
<path class="st1" d="M301.8,373.8c-0.1,27.2-0.9,54.5-2.4,81.6"/>
<path class="st1" d="M224.8,444.6c0.1-1.9-1.4-3.5-2.6-4.9c-3.2-3.3-6.6-6.6-10.7-8.5c-4.2-1.9-9.5-2.1-13.1,0.8
	c-3.7,2.9-4.7,8.5-3,13c1.6,4.5,5.3,7.9,9.4,10.3c4.2,2.4,9.3,3.9,13.9,2.5c4.7-1.5,8.3-6.4,7-11.1"/>
<path class="st1" d="M269.4,239.9c9.5,13.3,21.8,24.4,30.4,38.5c9.8-11.3,16.3-25.2,21.1-39.4"/>
<path class="st1" d="M258.7,246.1c-0.8,6.7,2.7,14.1,10.1,14.8c9.8,1,7-10.8,4.1-16.1"/>
<path class="st1" d="M216.5,238.7c5.3,11.8,9.9,24,14,36.2c10.9-10.2,21.5-20.6,31.2-31.8"/>
<path class="st1" d="M366.2,136.5c-6,0.6-15.4,2.6-21.2,0.8c-8.4-2.5-4.8,0.1-7.5-8.1c-4.1-12.2-3.2-25.4-8.6-37.7
	c-6.1-14.1-17.1-26.8-31.6-32c-6.4-2.3-13.2-3.1-20.1-3.6c-17.3-1.3-34.8-1.2-51.4,3.8c-16.5,5.1-31.9,15.8-39.6,31.2
	c-6.3,12.8-7,27.4-7.2,41.6c-0.5,40.5,6.6,81.2,4.8,121.4c-1.7,39.3-8.1,78.5-16.4,117c9.6,4.9,19.8-4.2,30.5-3.3
	c5.4,0.4,10.2,3.7,15.5,4.9c10.1,2.3,21-3.2,30.9,0c4.5,1.5,8.4,4.6,13.1,5.2c4.5,0.6,8.9-1.1,13.4-2.1c10.5-2.3,21.4-0.2,32.2,0.4
	c14.6,0.8,29.2-1,43.2-5.5c-3.6,1.1-13.6-106.8-13.1-116.7c0.2-5.1,0.5-10.1,0.8-15.1c2.3-33.9,6.8-67.2,4.3-101.7"/>
<path class="st1" d="M289.3,122.7c-0.5,1.7,0.6,3.5,2.3,3.8c1.7,0.3,3.4-1.1,3.4-2.9c-1.2-1.9-3.6-3-5.9-2.6"/>
<path class="st1" d="M270,155.1c7.8,18.9,32.4,44.6,56.5,38.7c6.8-1.7,5.6-5.3,11.5-8.8"/>
<path class="st1" d="M337.2,167.7c-22,8.9-49.1,2.7-65.6-13.7"/>
<path class="st1" d="M183.9,213.1c-7.5,3.3-12.2,10.1-16.4,16.5c-16.3,24.8-42.1,48.9-39.4,78.9"/>
<path class="st1" d="M111.5,305c3.4-7.8,11.6-19.5,18.6-24.5c-1.8,0-5.6,0.7-7.3,0.8c-6.4,0.4-12.8,3.1-17.7,7.5"/>
<path class="st1" d="M89.7,305.4c2.7-3,5.4-6.1,8.1-9.1c0.6-0.7,1.5-1.6,2.5-1.6c0.7,0,1.5,0.4,2.1,0.8c6.7,4.4,13.4,8.7,20.1,13.1
	c1.5,0.9,3,2,3.8,3.6c2.1,4.4-2.7,8.6-6.9,11.1"/>
<path class="st1" d="M131,376.2c-17.3-15.1-35.4-29.2-54.1-42.4c-7-4.9-21.5-12.6-23.5-21.8c-0.8-3.8,9.2-22,10.7-20.8
	c7.9,6.7,17.6,11.1,26.6,16.1c20.5,11.4,38.8,26.9,53.5,45.2c-8.6,21.1-19,40.4-33.6,57.9c-24.2-26.6-60.2-39.3-86.9-63.4
	c-0.3-3.5,2.2-5.6,4.5-8.4c6.9-8.5,14.4-18.7,21.6-28.5"/>
<path class="st1" d="M339,221.7c29.4,9.1,56.7,28.8,87.6,27.6c5-4.2,6.1-9.9,11.1-14c3.3-2.7,7.5-5.7,11.6-4.5
	c0.5,2.9-1.4,6.1-4.2,7.1c5.7,3.4,10.2,9.6,15.9,13.1c-3.1,1.7-6.6,2.9-10,3.7c0.5,2.7,0.6,5.4,0.2,8.1c-1.7,0.1-3.3,0.3-5,0.4
	c2.1,1.3,3.3,3.9,3,6.4c-13.4-0.2-24.9-9.6-34.9-18.4"/>
<path class="st1" d="M408.7,214c0.2-3.1,2.4-6.1,5.4-7.2"/>
<path class="st1" d="M398.4,197.5c3.4-1,6.9-2.2,10.4-3.2"/>
<path class="st1" d="M455.6,281.6c4.8,0.2,9.6-2.9,11.2-7.5"/>
<path class="st1" d="M480.9,282.3c-1.7-3,0.4-7.5,3.8-8.1"/>
<path class="st1" d="M449.4,245.3c21.3-2.2,43.8,3.5,64.2-2.8c6.6-2.1,12.6-5.3,18.6-8.2c9.9-4.7,20.1-8.7,30.6-11.9"/>
<path class="st1" d="M93.5,351.3c-3.1,3.3-7.4,5.9-12,6.1c-4.6,0.2-9.5-2.2-11.2-6.4c-1.8-4.3,0.4-10,4.9-11.2
	c3.8-1,13.4-9.7,17.4-9.4c4,0.2,8,2.4,9.5,6.1C103.4,340.1,97.2,350.1,93.5,351.3z"/>
<path class="st1" d="M563,165.3c-1.5-30.5-1.9-64.4,17.8-87.7c12.9-15.4,33.1-23.7,53.1-24.4c8.6-0.3,17.2,0.7,25.7,2.1
	c11.9,2,23.9,4.7,34.1,11.3C708.2,76,717,92.2,721,108.9s3.6,34.2,3.2,51.3c-1.4,54.9-3.5,109.8-6.4,164.7
	c-0.2,3-138.3,11.9-146.4-1.8c-4.7-8-2.1-24.9-2.5-33.8c-0.6-13.8-1.2-27.5-2-41.3C565.6,220.4,564.4,192.9,563,165.3z"/>
<path class="st1" d="M594.2,47c0.7,5,4.9,9.2,9.9,10.1c5,0.8,10.3-1.9,12.7-6.3c1.2-2.4,2.1-5.6,4.8-6.1c2.1-0.4,4,1.1,5.8,2.2
	c4.5,2.5,10.5,1.7,14.2-1.8c0.7,6,2.9,11.9,6.1,17.1c8.2-3.7,14.9-10.8,18.1-19.2c0.7,5,1.5,10,2.3,14.9c0.1,0.8,0.3,1.9,1,2.4
	c0.6,0.4,1.5,0.5,2.2,0.4c5.7-0.2,11.3-1.8,16.2-4.5"/>
<path class="st1" d="M572.1,142.3c-9.8,1-19.8-0.2-29-3.4"/>
<path class="st1" d="M613.7,122.7c0.1,2.3,0.2,4.6,0.3,7c3.2,2.2,8.1-2.1,6.9-5.8c-1.2-3.7-6.7-4.9-9.8-2.6
	c-1.2,2.6-0.5,5.8,1.7,7.7"/>
<path class="st1" d="M560.8,160.4c10.3,3,20.8,5.6,31.3,7.7c3.8,0.7,7.8,1.5,11.8,1.5c14.4,0.1,27.6-9.1,35.7-21
	c-7.9,10.5-14.9,21.6-22.8,32.1c-3.2,4.3-6.6,8.7-11.2,11.3c-3.4,2-7.4,2.8-11.2,3.4c-9.6,1.7-19.8,2.3-28.5-2"/>
<path class="st1" d="M282.7,240.7c17.1-1.5,34.1-3.6,51.3-2.4"/>
<path class="st1" d="M185.3,236c20.9,3.9,42.1,5.9,63.3,6.1"/>
<path class="st1" d="M719.8,235c-28.3,8.8-58.2,5.8-87.4,4.4c-21.5-1-41.9,0.1-63.4-0.7"/>
<path class="st1" d="M684.4,245.2c1.9,10.6-12,19.5-9.4,30c-3.8,1.2-7.2-2.9-9.5-6.2c-5-7.3-14.9-18.7-23-22.1
	c-5.2-2.3-12.3-0.7-15,4.3c-2.5,4.6,1.6,10.7,1.4,15.7c-0.2,5.5-2.9,11.7-5.1,16.7c-0.6,1.5-1.4,2.9-1.4,4.6s0.8,3.2,1.6,4.7
	c3.5,6.7,7.2,13.7,13.3,18.2c8.9-12.1,8.6-38.2,8-53c-0.7-17.4-23.6-14.4-33.6-4.2c-6.1,6.3-12.3,12.7-18.4,19
	c-3.4-9.8-4.8-20.1-4-30.4"/>
<path class="st1" d="M722.8,223.5c6.1,17.4,8.4,36,14.1,53.7c2.6,8,4,21.3,8.9,27.9c4.6,5.9,16,10.3,22.2,14.9"/>
<path class="st1" d="M679.5,331.3c-2.3,39.1-3.3,78.4-3,117.7c-0.3-5.2-0.6-11,3-14.5c2.3-2.2,5.6-3.2,8.7-3.6
	c3.6-0.5,7.7-0.3,10.4,2.2c3.1,2.9,3.2,8.2,0.8,11.7c-2.4,3.5-6.7,5.5-10.8,6c-4.3,0.5-8.5-0.1-12.7-0.7"/>
<path class="st1" d="M602.6,333.5c-2.2,7.8-1.4,16.1-0.5,24.2c3,29.3,5.9,58.5,8.9,87.8c0.3-4.8-2.7-9.2-6.2-12.5
	c-3.5-3.2-9.8-3.5-12.7,0.3c-1.9,2.4-2,5.7-1.8,8.7c0.1,1.7,0.3,3.4,1.1,5c1.9,3.5,6.7,4.8,10.6,3.7c3.8-1,7.1-3.8,9.9-6.6"/>
<path class="st1" d="M751.7,331.2c-2.8-8-5.7-14.7-9.7-22.3c-5.5,5.9-9,13.6-9.9,21.7"/>
<path class="st1" d="M632.1,260.5c3.6,1.2,8.1,0,10.5-3.1"/>
<path class="st1" d="M640,277.7c-5,5.4-9.3,11.3-13,17.6"/>
<path class="st1" d="M630.2,258.3c4,2.4,9.2,2.5,13.2,0.3"/>
<path class="st1" d="M637.5,278.7c1.7-1.6,3.2-3.2,4.9-4.8C643.7,272.6,636.2,280,637.5,278.7z"/>
<path class="st1" d="M286.8,121c1-1,2.2-2,3.2-3"/>
<path class="st1" d="M197.7,138.5c9.5,4.6,16.3,18.3,26.4,16.9c7.7-0.9,12.7-10.5,15.9-19.1c5.5-14.6,9.7-29.9,14.5-45
	c3.4-10.8,8.2-22.7,17.3-26c9.6-3.3,29.4-0.7,36.3,9.4c-11.2-2.1-26.7-2.4-35.4,6.9c-5.4,5.8-7.9,14.7-10.3,23
	c-8.2,28.3-18.8,55.5-31.7,81.1c-2.7,5.4-6.2,11.2-11.4,11.6c-7.1,0.5-11.2-9.1-17-14.2c-0.5-0.4-1.2-0.8-1.8-0.4
	c-0.5,0.5,0.4,1.7,0.6,0.9"/>
<path class="st1" d="M189.1,168.5c10.6-19,3.6-48.4,14.2-67.4c5.7-10.2,15.3-15.2,24.4-19.1c17.1-7.3,34.7-13.1,52.6-11.9
	c11.3,0.7,30.2,15.8,40.2,10.5c-9.3-18.9-36.4-32.5-52.2-39.2c-17.8-7.5-37.1-10.2-55-3.4c-7.4,2.8-14.7,7.4-20,14.8
	c-5.2,7.4-8,16.9-10.6,26.5c-5,18.7-9.2,37.7-12.4,57c-2.7,15.8-4.9,32.3-11.9,45.7c-6.9,13.4-20.1,22.8-31.6,17.2"/>
<path class="st1" d="M175.8,192.7c12.8-3.9,21.3-20.6,24.1-37.4s1.1-34.3,1.1-51.4c0-14.3,1-28.7,3.2-42.7c0.5-3.7,1.2-7.6,3.3-10.2
	c1.8-2.3,4.3-3.2,6.7-4c28.9-9.4,59.3-1.1,87.9,9.4c6.3,2.4,12.8,4.9,18,10c5.3,5.1,9.3,13.4,8.5,21.9c-5.2-8.5-17.2-18.8-25.3-21.4
	c-7.6-2.5-15.6-2-23.4-0.9c-12.9,1.7-26.2,4.8-36.8,14.3c-13.3,11.9-20.5,32.1-27.1,51.2"/>
<path class="st1" d="M285,240.7c-13.8,0.4-27.8,0.8-41.6,1.2"/>
</svg>
